<svg width="75" height="65" viewBox="0 0 75 65" fill="none" xmlns="http://www.w3.org/2000/svg">
<rect x="23.3708" y="32.1348" width="27.0225" height="28.4831" fill="#FF9160"/>
<path d="M0 30.7595C0 29.7992 0.450208 28.7789 1.35062 28.0586L32.6251 1.80055C35.4764 -0.600185 39.1081 -0.600185 41.9294 1.80055L55.4956 13.2041V8.19252C55.4956 6.84211 56.426 5.97184 57.7767 5.97184H62.4588C63.8095 5.97184 64.7099 6.84211 64.7099 8.19252V20.9164L73.1738 28.0286C74.0442 28.7789 74.4944 29.7091 74.4944 30.8195C74.4944 32.7401 73.0237 33.9705 71.0728 33.9705C70.0523 33.9705 69.1219 33.4603 68.3115 32.7701L38.7179 7.92244C37.7874 7.1422 36.737 7.1422 35.8365 7.92244L6.18285 32.7701C5.37248 33.4603 4.44205 33.9705 3.45159 33.9705C1.32061 33.9705 0 32.53 0 30.7595ZM9.9646 57.8578V35.651L35.3563 14.3744C36.5269 13.4141 37.9675 13.3841 39.1381 14.3744L64.5298 35.681V57.8578C64.5298 62.2692 61.6785 65 57.0863 65H17.408C12.8159 65 9.9646 62.2692 9.9646 57.8578ZM45.2009 58.3079V39.102C45.2009 37.6916 44.3004 36.7613 42.8598 36.7613H31.6346C30.224 36.7613 29.2635 37.6916 29.2635 39.102V58.3079H45.2009Z" fill="#FF9160"/>
<path d="M37.5208 42.2361C37.3933 42.2361 37.2087 42.1339 37.0461 42.0273C34.6028 40.4287 33.0251 38.5458 33.0251 36.6451C33.0251 34.9665 34.1765 33.8119 35.5959 33.8119C36.4792 33.8119 37.134 34.3093 37.5208 35.0331C37.9119 34.3048 38.5667 33.8119 39.45 33.8119C40.865 33.8119 42.0164 34.9665 42.0164 36.6451C42.0164 38.5458 40.4387 40.4287 37.9998 42.0273C37.8372 42.1339 37.6482 42.2361 37.5208 42.2361Z" fill="white"/>
<ellipse cx="24.375" cy="46.5263" rx="9.375" ry="9.47368" fill="white"/>
<ellipse cx="50.625" cy="46.5263" rx="9.375" ry="9.47368" fill="white"/>
<path d="M23.6667 45.6842C23.6667 45.9944 23.4192 46.2369 23.125 46.2369C22.8308 46.2369 22.5833 45.9944 22.5833 45.6842C22.5833 45.3741 22.8308 45.1316 23.125 45.1316C23.4192 45.1316 23.6667 45.3741 23.6667 45.6842Z" fill="#FF9160" stroke="#FF9160"/>
<mask id="path-7-inside-1_854_3282" fill="white">
<path fill-rule="evenodd" clip-rule="evenodd" d="M23.125 46.1684C23.3896 46.1684 23.6042 45.9516 23.6042 45.6842C23.6042 45.4168 23.3896 45.2 23.125 45.2C22.8604 45.2 22.6458 45.4168 22.6458 45.6842C22.6458 45.9516 22.8604 46.1684 23.125 46.1684ZM23.125 46.7369C23.7003 46.7369 24.1667 46.2656 24.1667 45.6842C24.1667 45.1029 23.7003 44.6316 23.125 44.6316C22.5497 44.6316 22.0833 45.1029 22.0833 45.6842C22.0833 46.2656 22.5497 46.7369 23.125 46.7369Z"/>
</mask>
<path fill-rule="evenodd" clip-rule="evenodd" d="M23.125 46.1684C23.3896 46.1684 23.6042 45.9516 23.6042 45.6842C23.6042 45.4168 23.3896 45.2 23.125 45.2C22.8604 45.2 22.6458 45.4168 22.6458 45.6842C22.6458 45.9516 22.8604 46.1684 23.125 46.1684ZM23.125 46.7369C23.7003 46.7369 24.1667 46.2656 24.1667 45.6842C24.1667 45.1029 23.7003 44.6316 23.125 44.6316C22.5497 44.6316 22.0833 45.1029 22.0833 45.6842C22.0833 46.2656 22.5497 46.7369 23.125 46.7369Z" fill="#FF9160"/>
<path d="M22.6042 45.6842C22.6042 45.4093 22.8275 45.1684 23.125 45.1684V47.1684C23.9518 47.1684 24.6042 46.494 24.6042 45.6842H22.6042ZM23.125 46.2C22.8275 46.2 22.6042 45.9592 22.6042 45.6842H24.6042C24.6042 44.8744 23.9518 44.2 23.125 44.2V46.2ZM23.6458 45.6842C23.6458 45.9592 23.4225 46.2 23.125 46.2V44.2C22.2982 44.2 21.6458 44.8744 21.6458 45.6842H23.6458ZM23.125 45.1684C23.4225 45.1684 23.6458 45.4093 23.6458 45.6842H21.6458C21.6458 46.494 22.2982 47.1684 23.125 47.1684V45.1684ZM23.1667 45.6842C23.1667 45.7025 23.1605 45.7154 23.1508 45.7252C23.1458 45.7302 23.141 45.7331 23.1374 45.7346C23.1346 45.7358 23.1311 45.7369 23.125 45.7369V47.7369C24.2624 47.7369 25.1667 46.808 25.1667 45.6842H23.1667ZM23.125 45.6316C23.1311 45.6316 23.1346 45.6326 23.1374 45.6338C23.141 45.6354 23.1458 45.6383 23.1508 45.6433C23.1605 45.6531 23.1667 45.666 23.1667 45.6842H25.1667C25.1667 44.5605 24.2624 43.6316 23.125 43.6316V45.6316ZM23.0833 45.6842C23.0833 45.666 23.0895 45.6531 23.0992 45.6433C23.1042 45.6383 23.109 45.6354 23.1126 45.6338C23.1154 45.6326 23.1189 45.6316 23.125 45.6316V43.6316C21.9876 43.6316 21.0833 44.5605 21.0833 45.6842H23.0833ZM23.125 45.7369C23.1189 45.7369 23.1154 45.7358 23.1126 45.7346C23.109 45.7331 23.1042 45.7302 23.0992 45.7252C23.0895 45.7154 23.0833 45.7025 23.0833 45.6842H21.0833C21.0833 46.808 21.9876 47.7369 23.125 47.7369V45.7369Z" fill="#FF9160" mask="url(#path-7-inside-1_854_3282)"/>
<path d="M45.4167 46.1052C45.4167 46.6866 44.9503 47.1579 44.375 47.1579C43.7997 47.1579 43.3333 46.6866 43.3333 46.1052C43.3333 45.5239 43.7997 45.0526 44.375 45.0526C44.9503 45.0526 45.4167 45.5239 45.4167 46.1052Z" fill="#FF9160"/>
<mask id="path-10-inside-2_854_3282" fill="white">
<path fill-rule="evenodd" clip-rule="evenodd" d="M44.375 46.5895C44.6396 46.5895 44.8542 46.3727 44.8542 46.1052C44.8542 45.8378 44.6396 45.621 44.375 45.621C44.1104 45.621 43.8958 45.8378 43.8958 46.1052C43.8958 46.3727 44.1104 46.5895 44.375 46.5895ZM44.375 47.1579C44.9503 47.1579 45.4167 46.6866 45.4167 46.1052C45.4167 45.5239 44.9503 45.0526 44.375 45.0526C43.7997 45.0526 43.3333 45.5239 43.3333 46.1052C43.3333 46.6866 43.7997 47.1579 44.375 47.1579Z"/>
</mask>
<path fill-rule="evenodd" clip-rule="evenodd" d="M44.375 46.5895C44.6396 46.5895 44.8542 46.3727 44.8542 46.1052C44.8542 45.8378 44.6396 45.621 44.375 45.621C44.1104 45.621 43.8958 45.8378 43.8958 46.1052C43.8958 46.3727 44.1104 46.5895 44.375 46.5895ZM44.375 47.1579C44.9503 47.1579 45.4167 46.6866 45.4167 46.1052C45.4167 45.5239 44.9503 45.0526 44.375 45.0526C43.7997 45.0526 43.3333 45.5239 43.3333 46.1052C43.3333 46.6866 43.7997 47.1579 44.375 47.1579Z" fill="#FF9160"/>
<path d="M43.8542 46.1052C43.8542 45.8303 44.0775 45.5895 44.375 45.5895V47.5895C45.2018 47.5895 45.8542 46.9151 45.8542 46.1052H43.8542ZM44.375 46.621C44.0775 46.621 43.8542 46.3802 43.8542 46.1052H45.8542C45.8542 45.2954 45.2018 44.621 44.375 44.621V46.621ZM44.8958 46.1052C44.8958 46.3802 44.6725 46.621 44.375 46.621V44.621C43.5482 44.621 42.8958 45.2954 42.8958 46.1052H44.8958ZM44.375 45.5895C44.6725 45.5895 44.8958 45.8303 44.8958 46.1052H42.8958C42.8958 46.9151 43.5482 47.5895 44.375 47.5895V45.5895ZM44.4167 46.1052C44.4167 46.1235 44.4105 46.1364 44.4008 46.1462C44.3958 46.1512 44.391 46.1541 44.3874 46.1556C44.3846 46.1568 44.3811 46.1579 44.375 46.1579V48.1579C45.5124 48.1579 46.4167 47.229 46.4167 46.1052H44.4167ZM44.375 46.0526C44.3811 46.0526 44.3846 46.0536 44.3874 46.0549C44.391 46.0564 44.3958 46.0593 44.4008 46.0643C44.4105 46.0741 44.4167 46.087 44.4167 46.1052H46.4167C46.4167 44.9815 45.5124 44.0526 44.375 44.0526V46.0526ZM44.3333 46.1052C44.3333 46.087 44.3395 46.0741 44.3492 46.0643C44.3542 46.0593 44.359 46.0564 44.3626 46.0549C44.3654 46.0536 44.3689 46.0526 44.375 46.0526V44.0526C43.2376 44.0526 42.3333 44.9815 42.3333 46.1052H44.3333ZM44.375 46.1579C44.3689 46.1579 44.3654 46.1568 44.3626 46.1556C44.359 46.1541 44.3542 46.1512 44.3492 46.1462C44.3395 46.1364 44.3333 46.1235 44.3333 46.1052H42.3333C42.3333 47.229 43.2376 48.1579 44.375 48.1579V46.1579Z" fill="#FF9160" mask="url(#path-10-inside-2_854_3282)"/>
<path d="M31.6667 45.6842C31.6667 46.2656 31.2003 46.7369 30.625 46.7369C30.0497 46.7369 29.5833 46.2656 29.5833 45.6842C29.5833 45.1029 30.0497 44.6316 30.625 44.6316C31.2003 44.6316 31.6667 45.1029 31.6667 45.6842Z" fill="#FF9160"/>
<mask id="path-13-inside-3_854_3282" fill="white">
<path fill-rule="evenodd" clip-rule="evenodd" d="M30.625 46.1684C30.8896 46.1684 31.1042 45.9516 31.1042 45.6842C31.1042 45.4168 30.8896 45.2 30.625 45.2C30.3604 45.2 30.1458 45.4168 30.1458 45.6842C30.1458 45.9516 30.3604 46.1684 30.625 46.1684ZM30.625 46.7369C31.2003 46.7369 31.6667 46.2656 31.6667 45.6842C31.6667 45.1029 31.2003 44.6316 30.625 44.6316C30.0497 44.6316 29.5833 45.1029 29.5833 45.6842C29.5833 46.2656 30.0497 46.7369 30.625 46.7369Z"/>
</mask>
<path fill-rule="evenodd" clip-rule="evenodd" d="M30.625 46.1684C30.8896 46.1684 31.1042 45.9516 31.1042 45.6842C31.1042 45.4168 30.8896 45.2 30.625 45.2C30.3604 45.2 30.1458 45.4168 30.1458 45.6842C30.1458 45.9516 30.3604 46.1684 30.625 46.1684ZM30.625 46.7369C31.2003 46.7369 31.6667 46.2656 31.6667 45.6842C31.6667 45.1029 31.2003 44.6316 30.625 44.6316C30.0497 44.6316 29.5833 45.1029 29.5833 45.6842C29.5833 46.2656 30.0497 46.7369 30.625 46.7369Z" fill="#FF9160"/>
<path d="M30.1042 45.6842C30.1042 45.4093 30.3275 45.1684 30.625 45.1684V47.1684C31.4518 47.1684 32.1042 46.494 32.1042 45.6842H30.1042ZM30.625 46.2C30.3275 46.2 30.1042 45.9592 30.1042 45.6842H32.1042C32.1042 44.8744 31.4518 44.2 30.625 44.2V46.2ZM31.1458 45.6842C31.1458 45.9592 30.9225 46.2 30.625 46.2V44.2C29.7982 44.2 29.1458 44.8744 29.1458 45.6842H31.1458ZM30.625 45.1684C30.9225 45.1684 31.1458 45.4093 31.1458 45.6842H29.1458C29.1458 46.494 29.7982 47.1684 30.625 47.1684V45.1684ZM30.6667 45.6842C30.6667 45.7025 30.6605 45.7154 30.6508 45.7252C30.6458 45.7302 30.641 45.7331 30.6374 45.7346C30.6346 45.7358 30.6311 45.7369 30.625 45.7369V47.7369C31.7624 47.7369 32.6667 46.808 32.6667 45.6842H30.6667ZM30.625 45.6316C30.6311 45.6316 30.6346 45.6326 30.6374 45.6338C30.641 45.6354 30.6458 45.6383 30.6508 45.6433C30.6605 45.6531 30.6667 45.666 30.6667 45.6842H32.6667C32.6667 44.5605 31.7624 43.6316 30.625 43.6316V45.6316ZM30.5833 45.6842C30.5833 45.666 30.5895 45.6531 30.5992 45.6433C30.6042 45.6383 30.609 45.6354 30.6126 45.6338C30.6154 45.6326 30.6189 45.6316 30.625 45.6316V43.6316C29.4876 43.6316 28.5833 44.5605 28.5833 45.6842H30.5833ZM30.625 45.7369C30.6189 45.7369 30.6154 45.7358 30.6126 45.7346C30.609 45.7331 30.6042 45.7302 30.5992 45.7252C30.5895 45.7154 30.5833 45.7025 30.5833 45.6842H28.5833C28.5833 46.808 29.4876 47.7369 30.625 47.7369V45.7369Z" fill="#FF9160" mask="url(#path-13-inside-3_854_3282)"/>
<path d="M52.9167 46.1052C52.9167 46.6866 52.4503 47.1579 51.875 47.1579C51.2997 47.1579 50.8333 46.6866 50.8333 46.1052C50.8333 45.5239 51.2997 45.0526 51.875 45.0526C52.4503 45.0526 52.9167 45.5239 52.9167 46.1052Z" fill="#FF9160"/>
<mask id="path-16-inside-4_854_3282" fill="white">
<path fill-rule="evenodd" clip-rule="evenodd" d="M51.875 46.5895C52.1396 46.5895 52.3542 46.3727 52.3542 46.1052C52.3542 45.8378 52.1396 45.621 51.875 45.621C51.6104 45.621 51.3958 45.8378 51.3958 46.1052C51.3958 46.3727 51.6104 46.5895 51.875 46.5895ZM51.875 47.1579C52.4503 47.1579 52.9167 46.6866 52.9167 46.1052C52.9167 45.5239 52.4503 45.0526 51.875 45.0526C51.2997 45.0526 50.8333 45.5239 50.8333 46.1052C50.8333 46.6866 51.2997 47.1579 51.875 47.1579Z"/>
</mask>
<path fill-rule="evenodd" clip-rule="evenodd" d="M51.875 46.5895C52.1396 46.5895 52.3542 46.3727 52.3542 46.1052C52.3542 45.8378 52.1396 45.621 51.875 45.621C51.6104 45.621 51.3958 45.8378 51.3958 46.1052C51.3958 46.3727 51.6104 46.5895 51.875 46.5895ZM51.875 47.1579C52.4503 47.1579 52.9167 46.6866 52.9167 46.1052C52.9167 45.5239 52.4503 45.0526 51.875 45.0526C51.2997 45.0526 50.8333 45.5239 50.8333 46.1052C50.8333 46.6866 51.2997 47.1579 51.875 47.1579Z" fill="#FF9160"/>
<path d="M51.3542 46.1052C51.3542 45.8303 51.5775 45.5895 51.875 45.5895V47.5895C52.7018 47.5895 53.3542 46.9151 53.3542 46.1052H51.3542ZM51.875 46.621C51.5775 46.621 51.3542 46.3802 51.3542 46.1052H53.3542C53.3542 45.2954 52.7018 44.621 51.875 44.621V46.621ZM52.3958 46.1052C52.3958 46.3802 52.1725 46.621 51.875 46.621V44.621C51.0482 44.621 50.3958 45.2954 50.3958 46.1052H52.3958ZM51.875 45.5895C52.1725 45.5895 52.3958 45.8303 52.3958 46.1052H50.3958C50.3958 46.9151 51.0482 47.5895 51.875 47.5895V45.5895ZM51.9167 46.1052C51.9167 46.1235 51.9105 46.1364 51.9008 46.1462C51.8958 46.1512 51.891 46.1541 51.8875 46.1556C51.8846 46.1568 51.8811 46.1579 51.875 46.1579V48.1579C53.0124 48.1579 53.9167 47.229 53.9167 46.1052H51.9167ZM51.875 46.0526C51.8811 46.0526 51.8846 46.0536 51.8875 46.0549C51.891 46.0564 51.8958 46.0593 51.9008 46.0643C51.9105 46.0741 51.9167 46.087 51.9167 46.1052H53.9167C53.9167 44.9815 53.0124 44.0526 51.875 44.0526V46.0526ZM51.8333 46.1052C51.8333 46.087 51.8396 46.0741 51.8492 46.0643C51.8542 46.0593 51.859 46.0564 51.8626 46.0549C51.8654 46.0536 51.8689 46.0526 51.875 46.0526V44.0526C50.7376 44.0526 49.8333 44.9815 49.8333 46.1052H51.8333ZM51.875 46.1579C51.8689 46.1579 51.8654 46.1568 51.8626 46.1556C51.859 46.1541 51.8542 46.1512 51.8492 46.1462C51.8396 46.1364 51.8333 46.1235 51.8333 46.1052H49.8333C49.8333 47.229 50.7376 48.1579 51.875 48.1579V46.1579Z" fill="#FF9160" mask="url(#path-16-inside-4_854_3282)"/>
<path fill-rule="evenodd" clip-rule="evenodd" d="M24.1901 46.9214C24.4229 46.7135 24.7784 46.7357 24.9841 46.971C25.3019 47.3346 25.8721 47.7614 26.5207 47.8822C27.1208 47.9939 27.8633 47.8605 28.641 46.971C28.8466 46.7357 29.2021 46.7135 29.4349 46.9214C29.6677 47.1292 29.6897 47.4884 29.4841 47.7237C28.4617 48.8931 27.3292 49.1887 26.3168 49.0002C25.3529 48.8207 24.5731 48.218 24.141 47.7237C23.9353 47.4884 23.9573 47.1292 24.1901 46.9214Z" fill="#FF9160"/>
<path fill-rule="evenodd" clip-rule="evenodd" d="M50.8099 47.4898C51.0427 47.6977 51.0647 48.0569 50.8591 48.2922C49.8367 49.4616 48.7042 49.7572 47.6918 49.5687C46.7279 49.3892 45.9481 48.7865 45.516 48.2922C45.3103 48.0569 45.3323 47.6977 45.5651 47.4898C45.7979 47.282 46.1534 47.3042 46.3591 47.5395C46.6769 47.9031 47.2471 48.3299 47.8957 48.4506C48.4958 48.5624 49.2383 48.429 50.016 47.5395C50.2216 47.3042 50.5771 47.282 50.8099 47.4898Z" fill="#FF9160"/>
</svg>
