<svg width="80" height="82" viewBox="0 0 80 82" fill="none" xmlns="http://www.w3.org/2000/svg">
<ellipse cx="40" cy="41" rx="40" ry="41" fill="#C75BC2"/>
<path d="M45.6219 29.8097C45.9181 31.0501 45.1538 32.295 43.9162 32.5912C42.6786 32.8874 41.4346 32.1232 41.1384 30.8828C40.8423 29.6425 41.6065 28.3976 42.8441 28.1014C44.0817 27.8051 45.3257 28.5694 45.6219 29.8097Z" fill="#F6F1EF" stroke="#F6F1EF"/>
<path d="M66.355 24.8477C66.6511 26.088 65.8869 27.333 64.6493 27.6292C63.4117 27.9254 62.1677 27.1611 61.8715 25.9208C61.5754 24.6805 62.3396 23.4355 63.5772 23.1393C64.8148 22.8431 66.0588 23.6074 66.355 24.8477Z" fill="#F6F1EF" stroke="#F6F1EF"/>
<path d="M49.5278 35.2435C52.3008 37.1945 58.8018 39.299 62.6223 32.1095" stroke="#F6F1EF" stroke-width="3" stroke-linecap="round"/>
</svg>
