<svg width="220" height="151" viewBox="0 0 220 151" fill="none" xmlns="http://www.w3.org/2000/svg">
<path d="M180.172 67.9794C179.313 67.9794 178.068 67.3011 176.972 66.5933C160.496 55.9761 149.857 43.4714 149.857 30.8488C149.857 19.7008 157.621 12.0328 167.193 12.0328C173.149 12.0328 177.565 15.3359 180.172 20.1432C182.81 15.3065 187.225 12.0328 193.182 12.0328C202.724 12.0328 210.488 19.7008 210.488 30.8488C210.488 43.4714 199.849 55.9761 183.403 66.5933C182.306 67.3011 181.032 67.9794 180.172 67.9794Z" fill="#FF9160"/>
<path d="M149.976 88.1228C149.976 84.6721 152.257 82.5192 155.873 82.5192H161.414C162.126 79.4226 164.526 77.6234 168.26 77.6234H192.055C195.819 77.6234 198.19 79.4521 198.901 82.5192H204.442C208.087 82.5192 210.339 84.6721 210.339 88.1228C210.339 99.9786 204.324 107.853 192.441 111.54C190.515 113.987 188.321 115.993 186.099 117.349V129.176H190.752C195.049 129.176 197.478 131.741 197.478 135.871V141.002C197.478 142.742 196.115 143.981 194.456 143.981H165.859C164.2 143.981 162.837 142.742 162.837 141.002V135.871C162.837 131.741 165.267 129.176 169.563 129.176H174.216V117.349C171.994 115.993 169.8 113.987 167.874 111.54C155.991 107.853 149.976 99.9786 149.976 88.1228ZM155.458 89.0368C155.458 95.9084 158.214 100.922 163.459 103.871C162.007 100.745 161.118 97.2063 161.118 93.4313V88.2406H156.258C155.784 88.2406 155.458 88.5649 155.458 89.0368ZM196.886 103.871C202.101 100.922 204.857 95.9084 204.857 89.0368C204.857 88.5649 204.531 88.2406 204.057 88.2406H199.227V93.4313C199.227 97.2063 198.308 100.745 196.886 103.871Z" fill="#FF9160"/>
<path d="M72.7012 144.289C107.616 144.289 135.92 116.12 135.92 81.3724C135.92 46.6244 107.616 18.4556 72.7012 18.4556C37.7866 18.4556 9.48267 46.6244 9.48267 81.3724C9.48267 116.12 37.7866 144.289 72.7012 144.289Z" fill="#FF9160"/>
<path d="M46.8521 68.7192C49.684 68.7192 51.9798 66.4344 51.9798 63.6159C51.9798 60.7975 49.684 58.5127 46.8521 58.5127C44.0201 58.5127 41.7244 60.7975 41.7244 63.6159C41.7244 66.4344 44.0201 68.7192 46.8521 68.7192Z" fill="#F6F1EF"/>
<path fill-rule="evenodd" clip-rule="evenodd" d="M46.8521 60.4002C45.0676 60.4002 43.621 61.8399 43.621 63.6159C43.621 65.3919 45.0676 66.8317 46.8521 66.8317C48.6367 66.8317 50.0833 65.3919 50.0833 63.6159C50.0833 61.8399 48.6367 60.4002 46.8521 60.4002ZM39.8279 63.6159C39.8279 59.755 42.9728 56.6252 46.8521 56.6252C50.7315 56.6252 53.8764 59.755 53.8764 63.6159C53.8764 67.4768 50.7315 70.6067 46.8521 70.6067C42.9728 70.6067 39.8279 67.4768 39.8279 63.6159Z" fill="#F6F1EF"/>
<path d="M97.427 68.7192C100.259 68.7192 102.555 66.4344 102.555 63.6159C102.555 60.7975 100.259 58.5127 97.427 58.5127C94.5951 58.5127 92.2993 60.7975 92.2993 63.6159C92.2993 66.4344 94.5951 68.7192 97.427 68.7192Z" fill="#F6F1EF"/>
<path fill-rule="evenodd" clip-rule="evenodd" d="M97.4271 60.4002C95.6426 60.4002 94.1959 61.8399 94.1959 63.6159C94.1959 65.3919 95.6426 66.8317 97.4271 66.8317C99.2116 66.8317 100.658 65.3919 100.658 63.6159C100.658 61.8399 99.2116 60.4002 97.4271 60.4002ZM90.4028 63.6159C90.4028 59.755 93.5477 56.6252 97.4271 56.6252C101.306 56.6252 104.451 59.755 104.451 63.6159C104.451 67.4768 101.306 70.6067 97.4271 70.6067C93.5477 70.6067 90.4028 67.4768 90.4028 63.6159Z" fill="#F6F1EF"/>
<path fill-rule="evenodd" clip-rule="evenodd" d="M89.4017 71.8321C90.9717 73.2124 91.1201 75.5981 89.7331 77.1605C82.8389 84.9271 75.2025 86.8899 68.3754 85.6378C61.8752 84.4457 56.6171 80.4434 53.7029 77.1605C52.3159 75.5981 52.4643 73.2124 54.0342 71.8321C55.6042 70.4517 58.0013 70.5994 59.3883 72.1618C61.5314 74.5762 65.3767 77.4108 69.7502 78.2128C73.7967 78.9549 78.804 78.0691 84.0477 72.1618C85.4347 70.5994 87.8318 70.4517 89.4017 71.8321Z" fill="#F6F1EF"/>
</svg>
