<svg width="80" height="43" viewBox="0 0 80 43" fill="none" xmlns="http://www.w3.org/2000/svg">
<path d="M40.037 18.0078C39.8105 18.0078 39.4823 17.8281 39.1933 17.6406C34.8495 14.8281 32.0448 11.5156 32.0448 8.17188C32.0448 5.21875 34.0917 3.1875 36.6152 3.1875C38.1855 3.1875 39.3495 4.0625 40.037 5.33594C40.7323 4.05469 41.8964 3.1875 43.4667 3.1875C45.9823 3.1875 48.0292 5.21875 48.0292 8.17188C48.0292 11.5156 45.2245 14.8281 40.8886 17.6406C40.5995 17.8281 40.2636 18.0078 40.037 18.0078Z" fill="#FBAD8A"/>
<circle cx="16.6667" cy="25.5556" r="16.6667" fill="#FBAD8A"/>
<circle cx="63.3334" cy="25.5556" r="16.6667" fill="#FBAD8A"/>
<circle cx="14.4444" cy="24.074" r="1.35185" fill="#451A50" stroke="#451A50"/>
<circle cx="52.2222" cy="24.8149" r="1.35185" fill="#451A50" stroke="#451A50"/>
<circle cx="27.7779" cy="24.074" r="1.35185" fill="#451A50" stroke="#451A50"/>
<circle cx="65.5555" cy="24.8149" r="1.35185" fill="#451A50" stroke="#451A50"/>
<path d="M17 27C18.3333 28.5092 21.8 30.6222 25 27" stroke="#451A50" stroke-width="2" stroke-linecap="round"/>
<path d="M55 28C56.3333 29.5092 59.8 31.6222 63 28" stroke="#451A50" stroke-width="2" stroke-linecap="round"/>
</svg>
