<svg width="80" height="82" viewBox="0 0 80 82" fill="none" xmlns="http://www.w3.org/2000/svg">
<ellipse cx="40" cy="41" rx="40" ry="41" fill="#C75BC2"/>
<path d="M33.1384 54.8476C32.8423 56.0879 33.6065 57.3329 34.8441 57.6291C36.0817 57.9253 37.3257 57.161 37.6219 55.9207C37.9181 54.6803 37.1538 53.4354 35.9162 53.1392C34.6786 52.843 33.4346 53.6073 33.1384 54.8476Z" fill="#F6F1EF" stroke="#F6F1EF"/>
<path d="M13.1384 51.8476C12.8422 53.0879 13.6065 54.3329 14.8441 54.6291C16.0817 54.9253 17.3257 54.161 17.6218 52.9207C17.918 51.6803 17.1537 50.4354 15.9161 50.1392C14.6785 49.843 13.4345 50.6073 13.1384 51.8476Z" fill="#F6F1EF" stroke="#F6F1EF"/>
<path d="M18 60.3184C20.7662 58.2256 27.428 55.7895 31.9458 62.7868" stroke="#F6F1EF" stroke-width="3" stroke-linecap="round"/>
</svg>
