<svg width="57" height="40" viewBox="0 0 57 40" fill="none" xmlns="http://www.w3.org/2000/svg">
<path d="M42.2812 28.7344C40.5547 28.7344 39.6328 27.8281 39.6328 26.1172V16.625C39.6328 14.9141 40.5547 14 42.2812 14H51.7188C53.4531 14 54.3672 14.9141 54.3672 16.625V26.1172C54.3672 27.8281 53.4531 28.7344 51.7188 28.7344H42.2812ZM44.7031 25.1016C45.0469 25.1016 45.2344 24.9766 45.5078 24.5703L46.9922 22.4141H47.0391L48.5078 24.5703C48.7656 24.9688 48.9609 25.1016 49.3125 25.1016C49.7891 25.1016 50.125 24.7891 50.125 24.3359C50.125 24.125 50.0625 23.9531 49.9062 23.7422L48.1016 21.3125L49.9141 18.8672C50.0781 18.6562 50.1406 18.4688 50.1406 18.2734C50.1406 17.8359 49.8047 17.5234 49.3438 17.5234C48.9922 17.5234 48.7891 17.6562 48.5469 18.0391L47.125 20.2031H47.0703L45.6016 18.0391C45.3438 17.6484 45.1406 17.5234 44.7891 17.5234C44.3281 17.5234 43.9688 17.8516 43.9688 18.2891C43.9688 18.5156 44.0391 18.6797 44.2109 18.9141L45.9531 21.2812L44.1328 23.7734C43.9688 23.9844 43.9141 24.1406 43.9141 24.3594C43.9141 24.7891 44.2422 25.1016 44.7031 25.1016Z" fill="#FBAD8A"/>
<circle cx="17.6667" cy="21.6667" r="16.6667" fill="#FBAD8A"/>
<circle cx="15.8519" cy="19.8519" r="1.35185" fill="#F6F1EF" stroke="#F6F1EF"/>
<circle cx="28.1853" cy="19.8519" r="1.35185" fill="#F6F1EF" stroke="#F6F1EF"/>
<path d="M18 24C19.3333 22.4908 22.8 20.3778 26 24" stroke="#F6F1EF" stroke-width="2" stroke-linecap="round"/>
</svg>
