<svg width="127" height="127" viewBox="0 0 127 127" fill="none" xmlns="http://www.w3.org/2000/svg">
<path d="M34.8101 52.7468C34.8101 57.1511 31.4948 60.7215 27.4051 60.7215C23.3154 60.7215 20 57.1511 20 52.7468C20 48.3425 23.3154 44.7722 27.4051 44.7722C31.4948 44.7722 34.8101 48.3425 34.8101 52.7468Z" fill="white"/>
<path d="M108.861 52.7468C108.861 57.1511 105.29 60.7215 100.886 60.7215C96.4818 60.7215 92.9114 57.1511 92.9114 52.7468C92.9114 48.3425 96.4818 44.7722 100.886 44.7722C105.29 44.7722 108.861 48.3425 108.861 52.7468Z" fill="white"/>
<path fill-rule="evenodd" clip-rule="evenodd" d="M86.4087 65.5591C85.3824 67.1971 83.2225 67.6929 81.5845 66.6666C75.2815 62.7171 59.3046 57.3934 45.5144 66.6106C43.9073 67.6847 41.7337 67.2527 40.6596 65.6456C39.5855 64.0385 40.0175 61.865 41.6246 60.7908C58.7041 49.3752 77.8844 56.0873 85.3013 60.7349C86.9393 61.7612 87.4351 63.9211 86.4087 65.5591Z" fill="white"/>
</svg>
