<svg width="101" height="102" viewBox="0 0 101 102" fill="none" xmlns="http://www.w3.org/2000/svg">
<g filter="url(#filter0_d_853_321)">
<ellipse cx="48.5" cy="47" rx="40" ry="41" fill="#C75BC2"/>
</g>
<path d="M41.6384 60.8476C41.3422 62.0879 42.1065 63.3329 43.3441 63.6291C44.5817 63.9253 45.8257 63.161 46.1218 61.9207C46.418 60.6803 45.6537 59.4354 44.4161 59.1392C43.1785 58.843 41.9345 59.6073 41.6384 60.8476Z" fill="#F6F1EF" stroke="#F6F1EF"/>
<path d="M21.6384 57.8476C21.3422 59.0879 22.1065 60.3329 23.3441 60.6291C24.5817 60.9253 25.8257 60.161 26.1218 58.9207C26.418 57.6803 25.6537 56.4354 24.4161 56.1392C23.1785 55.843 21.9345 56.6073 21.6384 57.8476Z" fill="#F6F1EF" stroke="#F6F1EF"/>
<path d="M26.5 66.3184C29.2662 64.2256 35.928 61.7895 40.4458 68.7868" stroke="#F6F1EF" stroke-width="3" stroke-linecap="round"/>
<defs>
<filter id="filter0_d_853_321" x="0.5" y="0" width="100" height="102" filterUnits="userSpaceOnUse" color-interpolation-filters="sRGB">
<feFlood flood-opacity="0" result="BackgroundImageFix"/>
<feColorMatrix in="SourceAlpha" type="matrix" values="0 0 0 0 0 0 0 0 0 0 0 0 0 0 0 0 0 0 127 0" result="hardAlpha"/>
<feOffset dx="2" dy="4"/>
<feGaussianBlur stdDeviation="5"/>
<feComposite in2="hardAlpha" operator="out"/>
<feColorMatrix type="matrix" values="0 0 0 0 0.0470588 0 0 0 0 0.0235294 0 0 0 0 0.14902 0 0 0 0.25 0"/>
<feBlend mode="normal" in2="BackgroundImageFix" result="effect1_dropShadow_853_321"/>
<feBlend mode="normal" in="SourceGraphic" in2="effect1_dropShadow_853_321" result="shape"/>
</filter>
</defs>
</svg>
